<svg width="2003" height="1466" viewBox="0 0 2003 1466" fill="none" xmlns="http://www.w3.org/2000/svg">
<path d="M303.509 989.494C272.175 989.494 245.675 982.16 224.009 967.494C202.342 952.494 186.009 932.327 175.009 906.994C164.342 881.327 159.009 852.66 159.009 820.994C159.009 788.66 164.342 759.827 175.009 734.494C186.009 708.827 202.342 688.66 224.009 673.994C246.009 658.994 273.009 651.494 305.009 651.494C324.675 651.494 342.175 654.327 357.509 659.994C372.842 665.66 384.842 673.494 393.509 683.494C402.175 693.494 406.509 704.994 406.509 717.994C406.509 733.327 402.009 745.994 393.009 755.994C384.009 765.66 372.675 770.494 359.009 770.494C352.009 770.494 348.509 768.66 348.509 764.994C348.509 764.327 349.842 761.994 352.509 757.994C355.175 753.66 357.509 748.827 359.509 743.494C361.509 737.827 362.509 731.327 362.509 723.994C362.509 709.994 357.175 698.66 346.509 689.994C336.175 680.994 322.342 676.494 305.009 676.494C282.675 676.494 264.342 683.494 250.009 697.494C236.009 711.494 225.842 729.494 219.509 751.494C213.175 773.16 210.009 796.327 210.009 820.994C210.009 845.994 214.009 868.994 222.009 889.994C230.009 910.994 241.342 927.66 256.009 939.994C271.009 951.994 288.175 957.994 307.509 957.994C326.842 957.994 343.675 954.494 358.009 947.494C372.675 940.16 384.342 930.16 393.009 917.494C394.009 916.16 395.009 915.494 396.009 915.494C399.009 915.494 402.175 916.994 405.509 919.994C408.842 922.66 410.509 925.494 410.509 928.494C410.509 929.494 410.175 930.66 409.509 931.994C382.842 970.327 347.509 989.494 303.509 989.494Z" fill="#00A2EA"/>
<path d="M150.028 632.219L338.701 580.51L355.298 641.068L339.353 669.892C338.848 670.805 338.226 671.648 337.503 672.4L293.964 717.685L187.549 712.663L157.17 695.368L150.028 632.219Z" fill="#343030"/>
<path d="M227.211 554.526L396.441 548.907L253.523 650.533L75.3996 636.893L227.211 554.526Z" fill="#00A2EA"/>
<path d="M344.509 615.994C346.009 621.494 352.904 624.762 355.009 639.495C356.009 646.495 347.065 659.241 338.509 660.494C327.813 657.518 323.405 651.565 320.009 639.494C317.648 626.769 333.547 618.027 344.509 615.994Z" fill="#343030"/>
<rect x="256.009" y="581.994" width="152" height="6" fill="#E69703"/>
<rect x="402.009" y="611.994" width="30" height="6" transform="rotate(-90 402.009 611.994)" fill="#E69703"/>
<circle cx="405.009" cy="615.994" r="9" fill="#E69703"/>
<path d="M405.509 611.994L416.334 658.494L408.509 637.494L407.509 658.494L405.509 637.494L403.509 658.494L403.509 635.994L397.009 658.494L402.509 632.994L394.684 658.494L405.509 611.994Z" fill="#D09322"/>
<path d="M405.509 624.994L410.009 642.494L410.009 657.494L407.009 646.994L405.509 657.494L403.009 648.494L401.009 657.494L403.009 642.494L399.009 657.494L401.009 642.494L393.817 656.494L405.509 624.994Z" fill="#E69703"/>
<path d="M256.009 581.994L259.473 587.994L252.545 587.994L256.009 581.994Z" fill="#E69703"/>
<path d="M409.478 632.383L400.5 657L404.16 643.187L409.08 658.012L405.822 641.691L411.407 658.926L407.584 641.308L412.803 659.475L409.445 642.04L414.406 660.104L409.478 632.383Z" fill="#D09322"/>
<path d="M200.264 688.165C203.764 698.75 203.287 707.937 191 712C178.713 716.062 160.5 705.085 157 694.5C158.5 683.5 162.5 681 174 676C186.287 671.937 196.765 677.58 200.264 688.165Z" fill="#343030"/>
<path d="M591.509 782.494C591.509 805.827 581.842 825.327 562.509 840.994C543.509 856.661 517.009 866.327 483.009 869.994C484.342 883.327 486.675 894.161 490.009 902.494C493.675 910.827 498.009 917.494 503.009 922.494C508.009 927.161 513.675 930.494 520.009 932.494C526.675 934.161 533.509 934.994 540.509 934.994C556.509 934.994 571.509 930.827 585.509 922.494C599.509 914.161 610.842 900.161 619.509 880.494L635.509 880.494C631.175 892.827 625.175 904.661 617.509 915.994C609.842 926.994 600.842 936.827 590.509 945.494C580.175 953.827 569.009 960.494 557.009 965.494C545.009 970.494 532.675 972.994 520.009 972.994C508.342 972.994 497.009 970.994 486.009 966.994C475.342 962.994 465.842 956.494 457.509 947.494C449.175 938.161 442.342 926.161 437.009 911.494C432.009 896.827 429.509 878.827 429.509 857.494C429.509 843.494 431.009 828.327 434.009 811.994C437.342 795.661 442.675 780.494 450.009 766.494C457.675 752.494 467.509 740.827 479.509 731.494C491.842 722.161 507.009 717.494 525.009 717.494C533.342 717.494 541.342 718.494 549.009 720.494C557.009 722.161 564.175 725.494 570.509 730.494C576.842 735.161 581.842 741.661 585.509 749.994C589.509 758.327 591.509 769.161 591.509 782.494ZM482.509 850.494C506.175 846.827 524.842 838.494 538.509 825.494C552.509 812.494 559.509 796.494 559.509 777.494C559.509 764.827 557.342 755.827 553.009 750.494C548.675 744.827 542.509 741.994 534.509 741.994C525.842 741.994 518.175 745.327 511.509 751.994C505.175 758.661 499.842 767.327 495.509 777.994C491.175 788.327 487.842 799.994 485.509 812.994C483.509 825.661 482.509 838.161 482.509 850.494ZM669.091 719.994L669.091 761.994C673.091 755.994 676.924 750.327 680.591 744.994C684.591 739.661 688.924 734.994 693.591 730.994C698.257 726.994 703.424 723.827 709.091 721.494C714.757 718.827 721.091 717.494 728.091 717.494C739.424 717.494 747.757 720.494 753.091 726.494C758.424 732.161 761.091 739.161 761.091 747.494C761.091 752.494 760.257 756.661 758.591 759.994C756.924 763.327 754.924 765.994 752.591 767.994C750.258 769.994 747.758 771.494 745.091 772.494C742.424 773.161 740.091 773.494 738.091 773.494C735.091 773.494 732.591 772.827 730.591 771.494C728.924 770.161 727.091 768.827 725.091 767.494C723.424 765.827 721.424 764.327 719.091 762.994C716.757 761.661 713.757 760.994 710.091 760.994C702.424 760.994 695.091 763.661 688.091 768.994C681.091 774.327 674.757 779.994 669.091 785.994L669.091 969.994L619.091 969.994L619.091 719.994L669.091 719.994ZM971.56 619.994L971.56 889.994C971.56 893.327 971.726 897.494 972.06 902.494C972.393 907.494 973.226 912.494 974.56 917.494C976.226 922.161 978.56 926.327 981.56 929.994C984.56 933.327 988.726 934.994 994.06 934.994C1010.39 934.994 1022.39 916.827 1030.06 880.494L1048.56 880.494C1044.89 901.494 1040.23 918.161 1034.56 930.494C1028.89 942.494 1022.89 951.661 1016.56 957.994C1010.23 964.327 1003.73 968.327 997.06 969.994C990.393 971.994 984.393 972.994 979.06 972.994C971.393 972.994 964.726 971.661 959.06 968.994C953.726 966.327 949.06 962.827 945.06 958.494C941.393 954.161 938.393 949.161 936.06 943.494C933.726 937.827 931.893 931.827 930.56 925.494C925.56 938.494 917.393 949.661 906.06 958.994C895.06 968.327 881.56 972.994 865.56 972.994C855.56 972.994 845.393 970.994 835.06 966.994C825.06 962.994 815.893 956.494 807.56 947.494C799.56 938.161 792.893 926.327 787.56 911.994C782.56 897.327 780.06 879.494 780.06 858.494C780.06 843.161 781.726 827.161 785.06 810.494C788.726 793.827 794.393 778.661 802.06 764.994C809.726 751.327 819.56 739.994 831.56 730.994C843.56 721.994 858.06 717.494 875.06 717.494C879.06 717.494 883.226 717.994 887.56 718.994C892.226 719.661 896.56 720.994 900.56 722.994C904.893 724.994 908.893 727.827 912.56 731.494C916.226 734.827 919.226 738.994 921.56 743.994L921.56 626.994L971.56 619.994ZM878.06 934.994C883.06 934.994 888.06 933.661 893.06 930.994C898.393 927.994 903.06 924.161 907.06 919.494C911.393 914.494 914.893 908.661 917.56 901.994C920.226 895.327 921.56 888.161 921.56 880.494L921.56 766.494C919.226 761.161 915.56 756.327 910.56 751.994C905.893 747.327 899.726 744.994 892.06 744.994C881.393 744.994 872.226 748.661 864.56 755.994C856.893 762.994 850.726 771.994 846.06 782.994C841.393 793.661 837.893 805.494 835.56 818.494C833.56 831.161 832.56 843.327 832.56 854.994C832.56 883.661 836.393 904.161 844.06 916.494C852.06 928.827 863.393 934.994 878.06 934.994ZM1080.24 719.994L1080.24 889.994C1080.24 893.327 1080.4 897.494 1080.74 902.494C1081.07 907.494 1081.9 912.494 1083.24 917.494C1084.9 922.161 1087.24 926.327 1090.24 929.994C1093.24 933.327 1097.4 934.994 1102.74 934.994C1119.07 934.994 1131.07 916.827 1138.74 880.494L1157.24 880.494C1153.57 901.494 1148.9 918.161 1143.24 930.494C1137.57 942.494 1131.57 951.661 1125.24 957.994C1118.9 964.327 1112.4 968.327 1105.74 969.994C1099.07 971.994 1093.07 972.994 1087.74 972.994C1076.07 972.994 1066.57 970.827 1059.24 966.494C1051.9 961.827 1046.07 955.994 1041.74 948.994C1037.4 941.994 1034.4 934.161 1032.74 925.494C1031.07 916.827 1030.24 908.494 1030.24 900.494L1030.24 719.994L1080.24 719.994ZM1021.24 647.994C1021.24 638.994 1024.4 631.161 1030.74 624.494C1037.07 617.827 1044.9 614.494 1054.24 614.494C1063.24 614.494 1071.07 617.827 1077.74 624.494C1084.4 631.161 1087.74 638.994 1087.74 647.994C1087.74 657.327 1084.4 665.161 1077.74 671.494C1071.07 677.827 1063.24 680.994 1054.24 680.994C1044.9 680.994 1037.07 677.827 1030.74 671.494C1024.4 665.161 1021.24 657.327 1021.24 647.994ZM1188.13 619.994L1188.13 801.494L1274.13 719.994L1322.63 719.994L1239.13 787.494L1244.13 787.494C1259.13 787.494 1270.97 789.994 1279.63 794.994C1288.63 799.994 1295.47 806.494 1300.13 814.494C1305.13 822.161 1308.3 830.661 1309.63 839.994C1311.3 848.994 1312.13 857.494 1312.13 865.494C1312.13 868.827 1311.97 872.661 1311.63 876.994C1311.63 880.994 1311.47 885.161 1311.13 889.494C1311.13 893.494 1310.97 897.327 1310.63 900.994C1310.63 904.327 1310.63 906.994 1310.63 908.994C1310.63 911.327 1310.8 913.994 1311.13 916.994C1311.47 919.994 1312.3 922.827 1313.63 925.494C1314.97 928.161 1316.97 930.494 1319.63 932.494C1322.3 934.161 1325.8 934.994 1330.13 934.994C1338.8 934.994 1346.13 930.661 1352.13 921.994C1358.47 913.327 1363.63 899.494 1367.63 880.494L1386.13 880.494C1382.13 902.161 1377.3 919.161 1371.63 931.494C1365.97 943.494 1359.8 952.661 1353.13 958.994C1346.8 965.327 1340.3 969.161 1333.63 970.494C1327.3 972.161 1321.63 972.994 1316.63 972.994C1306.63 972.994 1297.97 971.494 1290.63 968.494C1283.63 965.494 1277.8 961.494 1273.13 956.494C1268.8 951.161 1265.47 944.994 1263.13 937.994C1261.13 930.994 1260.13 923.661 1260.13 915.994C1260.13 914.661 1260.13 911.827 1260.13 907.494C1260.13 902.827 1260.13 897.994 1260.13 892.994C1260.47 887.994 1260.63 883.327 1260.63 878.994C1260.63 874.327 1260.63 871.161 1260.63 869.494C1260.63 852.161 1257.47 840.494 1251.13 834.494C1244.8 828.494 1237.47 825.494 1229.13 825.494C1220.47 825.494 1212.63 828.327 1205.63 833.994C1198.97 839.661 1193.13 849.661 1188.13 863.994L1188.13 969.994L1138.13 969.994L1138.13 626.994L1188.13 619.994ZM1417.15 719.994L1417.15 889.994C1417.15 893.327 1417.32 897.494 1417.65 902.494C1417.98 907.494 1418.82 912.494 1420.15 917.494C1421.82 922.161 1424.15 926.327 1427.15 929.994C1430.15 933.327 1434.32 934.994 1439.65 934.994C1455.98 934.994 1467.98 916.827 1475.65 880.494L1494.15 880.494C1490.48 901.494 1485.82 918.161 1480.15 930.494C1474.48 942.494 1468.48 951.661 1462.15 957.994C1455.82 964.327 1449.32 968.327 1442.65 969.994C1435.98 971.994 1429.98 972.994 1424.65 972.994C1412.98 972.994 1403.48 970.827 1396.15 966.494C1388.82 961.827 1382.98 955.994 1378.65 948.994C1374.32 941.994 1371.32 934.161 1369.65 925.494C1367.98 916.827 1367.15 908.494 1367.15 900.494L1367.15 719.994L1417.15 719.994ZM1358.15 647.994C1358.15 638.994 1361.32 631.161 1367.65 624.494C1373.98 617.827 1381.82 614.494 1391.15 614.494C1400.15 614.494 1407.98 617.827 1414.65 624.494C1421.32 631.161 1424.65 638.994 1424.65 647.994C1424.65 657.327 1421.32 665.161 1414.65 671.494C1407.98 677.827 1400.15 680.994 1391.15 680.994C1381.82 680.994 1373.98 677.827 1367.65 671.494C1361.32 665.161 1358.15 657.327 1358.15 647.994ZM1659.55 719.994L1659.55 889.994C1659.55 893.994 1659.71 898.661 1660.05 903.994C1660.38 908.994 1661.21 913.827 1662.55 918.494C1664.21 923.161 1666.55 927.161 1669.55 930.494C1672.88 933.494 1677.55 934.994 1683.55 934.994C1686.21 934.994 1689.05 934.661 1692.05 933.994C1695.38 933.327 1698.05 932.661 1700.05 931.994C1700.38 933.661 1700.55 935.161 1700.55 936.494C1700.88 937.827 1701.05 939.327 1701.05 940.994C1701.05 950.994 1697.21 958.827 1689.55 964.494C1681.88 970.161 1673.21 972.994 1663.55 972.994C1653.21 972.994 1643.88 969.494 1635.55 962.494C1627.21 955.161 1621.55 942.994 1618.55 925.994C1613.55 938.994 1605.38 950.161 1594.05 959.494C1582.71 968.494 1569.05 972.994 1553.05 972.994C1543.05 972.994 1532.88 970.994 1522.55 966.994C1512.55 962.661 1503.55 955.994 1495.55 946.994C1487.55 937.994 1480.88 926.327 1475.55 911.994C1470.55 897.661 1468.05 880.327 1468.05 859.994C1468.05 844.327 1469.71 828.161 1473.05 811.494C1476.71 794.494 1482.21 779.161 1489.55 765.494C1497.21 751.494 1507.05 739.994 1519.05 730.994C1531.05 721.994 1545.38 717.494 1562.05 717.494C1570.71 717.494 1579.55 719.327 1588.55 722.994C1597.88 726.661 1604.88 733.661 1609.55 743.994L1609.55 719.994L1659.55 719.994ZM1563.55 934.994C1569.88 934.994 1575.88 933.494 1581.55 930.494C1587.21 927.494 1592.05 923.494 1596.05 918.494C1600.38 913.494 1603.71 907.827 1606.05 901.494C1608.38 894.827 1609.55 887.827 1609.55 880.494L1609.55 766.494C1607.21 760.827 1603.71 755.827 1599.05 751.494C1594.38 747.161 1587.71 744.994 1579.05 744.994C1568.38 744.994 1559.38 748.661 1552.05 755.994C1544.71 762.994 1538.71 771.994 1534.05 782.994C1529.38 793.994 1525.88 806.327 1523.55 819.994C1521.55 833.327 1520.55 846.161 1520.55 858.494C1520.55 885.494 1524.71 904.994 1533.05 916.994C1541.38 928.994 1551.55 934.994 1563.55 934.994Z" fill="#00A2EA"/>
</svg>
