<svg width="222" height="242" viewBox="0 0 222 242" fill="none" xmlns="http://www.w3.org/2000/svg">
<path d="M153.641 75.3595C149.407 66.8927 152.759 59.1315 134.767 49.4674C116.775 39.8032 110.425 44.3672 101.29 49.4673C81.9694 60.2554 83.9658 61.7774 80.2616 83.8948C72.1797 106.378 87.3172 116.812 94.7257 141.154C113.952 161.968 119.597 171.846 137.413 183.841C154.523 199.187 123.956 191.661 144.998 186.31C194.917 186.31 157.743 180.842 140.528 159.499C130.297 212.769 146.761 176.962 139.882 143.271L140.528 138.249L147.996 110.285L153.641 75.3595Z" fill="#00A2EA"/>
<path d="M134.9 204.126C130.356 204.126 128.467 196.59 128.761 191.694C129.054 186.797 131.263 181.813 134.9 177.838C138.538 173.863 143.307 171.223 148.158 170.498C153.01 169.773 157.12 179.48 160.343 182.43L154.169 186.134L147.053 188.96L134.9 204.126Z" fill="#00A2EA"/>
<path d="M68.796 60.7191L67.9825 58.9552L68.796 56.8385L76.7337 51.1939L86.5037 47.9143L95.2548 48.3717L98.6747 49.149L100.547 49.9592L89.2575 58.9552L81.849 73.9486L80.967 73.9486L68.796 60.7191Z" fill="#00A2EA"/>
<path d="M160.169 96.1739L168.636 88.2362L171.282 88.2362L173.575 90.5293L173.575 96.1739L172.516 103.053L169.341 112.226L164.226 119.105L158.758 124.397L152.408 127.748L147.469 129.336L142.069 131.045L148.772 101.411L154.877 98.7315L160.169 96.1739Z" fill="#00A2EA"/>
<path d="M65.1223 105.149L54.6072 99.7661L51.8013 100.579L49.8131 103.59L50.9054 109.267L53.3589 115.861L58.501 124.112L65.257 129.46L72.08 133.103L79.4628 134.524L92.5016 134.524L80.5069 107.054L65.1223 105.149Z" fill="#00A2EA"/>
<path d="M151.055 91.4319C151.891 91.5587 152.748 91.4845 153.579 91.2136C154.41 90.9428 155.197 90.4805 155.897 89.8533C156.596 89.226 157.963 88.5712 158.757 87.3549C159.433 86.7111 159.727 86.278 160.521 85.0618C161.116 84.4529 161.901 83.0586 162.104 81.4401C162.257 80.2262 161.72 78.4083 160.735 77.8056C160.253 76.9991 158.766 76.1948 157.187 75.9985C156.596 75.5959 154.271 75.9375 153.436 75.8107L152.227 83.7115L151.055 91.4319Z" fill="#00A2EA"/>
<path d="M69.978 61.5448C69.6697 61.5111 69.3721 61.4082 69.1021 61.2419C68.8321 61.0756 68.595 60.8492 68.4044 60.5757C68.2138 60.3022 68.0733 59.9869 67.9911 59.6478C67.9088 59.3087 67.8863 58.9524 67.925 58.5994C67.9636 58.2463 68.0626 57.9033 68.2163 57.59C68.3699 57.2767 68.5753 56.9993 68.8206 56.7735C69.0659 56.5477 69.3463 56.378 69.6459 56.274C69.9454 56.1701 70.2583 56.1339 70.5665 56.1677L71.9876 58.7989L69.978 61.5448Z" fill="#00A2EA"/>
<path d="M82.2382 73.6628L81.7491 74.9947L80.8241 73.779L82.2382 73.6628Z" fill="#00A2EA"/>
<path d="M65.1664 47.9603L131.727 29.7182L137.582 51.0821L132.449 60.3607C131.944 61.2736 131.323 62.1166 130.6 62.8687L115.945 78.1113L78.4032 76.3395L67.6857 70.2384L65.1664 47.9603Z" fill="#343030"/>
<path d="M92.3955 20.5507L152.097 18.5685L101.678 54.4204L38.8386 49.6087L92.3955 20.5507Z" fill="#00A2EA"/>
<path d="M133.777 42.2364C134.306 44.1766 136.738 45.3296 137.481 50.5273C137.834 52.9968 134.678 57.4932 131.66 57.9353C127.887 56.8854 126.332 54.7854 125.133 50.5268C124.301 46.0378 129.91 42.9538 133.777 42.2364Z" fill="#343030"/>
<rect x="102.554" y="30.2412" width="53.6233" height="2.11671" fill="#E69703"/>
<rect x="154.061" y="40.8252" width="10.5835" height="2.11671" transform="rotate(-90 154.061 40.8252)" fill="#E69703"/>
<circle cx="155.119" cy="42.2356" r="3.17506" fill="#E69703"/>
<path d="M155.297 40.8252L159.116 57.2297L156.355 49.8212L156.003 57.2297L155.297 49.8212L154.591 57.2297L154.591 49.292L152.298 57.2297L154.239 48.2337L151.478 57.2297L155.297 40.8252Z" fill="#D09322"/>
<path d="M155.295 45.4111L156.883 51.5849L156.883 56.8766L155.825 53.1724L155.295 56.8766L154.413 53.7016L153.708 56.8766L154.413 51.5849L153.002 56.8766L153.708 51.5849L151.171 56.5239L155.295 45.4111Z" fill="#E69703"/>
<path d="M102.554 30.2412L103.776 32.3579L101.332 32.3579L102.554 30.2412Z" fill="#E69703"/>
<path d="M156.696 48.017L153.528 56.7014L154.819 51.8283L156.555 57.0584L155.406 51.3005L157.376 57.3809L156.027 51.1657L157.868 57.5744L156.684 51.4236L158.434 57.7966L156.696 48.017Z" fill="#D09322"/>
<path d="M82.8892 67.6964C84.1238 71.4306 83.9557 74.6718 79.6209 76.105C75.2861 77.5382 68.8608 73.6657 67.6262 69.9314C68.1554 66.0508 69.5665 65.1688 73.6236 63.4048C77.9583 61.9717 81.6546 63.9621 82.8892 67.6964Z" fill="#343030"/>
</svg>
